# xmcd
#
# Track frame offsets:
#	150
#	19015
#	38616
#	55331
#	72184
#	87045
#	108246
#	127113
#	146713
#	163428
#	180282
#	195142
#
# Disc length: 2884 seconds
#
# Revision: 1
# Processed by: cddbd v1.5.2PL0 Copyright (c) Steve Scherf et al.
# Submitted via: audiograbber 1.83.01
#
DISCID=9a0b420c
DTITLE=Various Artist - CB20050 Hot Hits Vol. 50
DYEAR=1900
DGENRE=Country
TTITLE0=Allan Jackson - I'll Go On Loving You
TTITLE1=John Berry - Better Than A Biscuit
TTITLE2=LeAnn Rimes - Nothin' Under The Moon
TTITLE3=Aaron Tippin - For You I Will
TTITLE4=Tracy Lawrence - While You Sleep
TTITLE5=Dolly Parton - Honky Tonk Songs
TTITLE6=Allan Jackson - I'll Go On Loving You
TTITLE7=John Berry - Better Than A Biscuit
TTITLE8=LeAnn Rimes - Nothin' Under The Moon
TTITLE9=Aaron Tippin - For You I Will
TTITLE10=Tracy Lawrence - While You Sleep
TTITLE11=Dolly Parton - Honky Tonk Songs
EXTD=
EXTT0=
EXTT1=
EXTT2=
EXTT3=
EXTT4=
EXTT5=
EXTT6=
EXTT7=
EXTT8=
EXTT9=
EXTT10=
EXTT11=
PLAYORDER=
